<?xml version="1.0" standalone="no"?>
<!DOCTYPE svg PUBLIC "-//W3C//DTD SVG 20010904//EN"
 "http://www.w3.org/TR/2001/REC-SVG-20010904/DTD/svg10.dtd">
<svg version="1.0" xmlns="http://www.w3.org/2000/svg"
 width="120.000000pt" height="25.000000pt" viewBox="0 0 120.000000 25.000000"
 preserveAspectRatio="xMidYMid meet">
<metadata>
Created by potrace 1.16, written by Peter Selinger 2001-2019
</metadata>
<g transform="translate(0.000000,25.000000) scale(0.025641,-0.029762)"
fill="#000000" stroke="none">
<path d="M2603 833 c-7 -2 -13 -9 -13 -14 0 -4 7 -6 15 -3 26 10 17 -27 -21
-89 -27 -44 -35 -66 -31 -90 3 -24 -1 -35 -19 -50 -28 -22 -30 -39 -7 -63 17
-16 18 -16 23 7 8 35 46 38 62 4 10 -23 9 -33 -11 -70 -12 -23 -35 -55 -50
-69 l-28 -27 -42 46 c-39 42 -42 50 -39 93 3 42 6 47 26 46 33 -1 24 30 -10
34 -40 5 -78 -39 -78 -90 0 -30 7 -46 29 -69 l29 -29 -51 0 c-65 0 -133 -32
-159 -75 -14 -24 -24 -32 -38 -28 -11 3 -20 0 -20 -6 0 -6 -10 -15 -22 -20
l-22 -8 22 -12 c16 -8 28 -9 41 -1 16 8 21 6 26 -13 19 -60 93 -94 139 -63 30
19 41 63 25 102 l-12 29 -6 -24 c-8 -29 -29 -39 -37 -17 -8 21 -43 21 -51 0
-3 -9 -1 -25 6 -35 14 -23 -2 -25 -23 -3 -25 25 -20 72 12 104 36 36 120 55
181 41 24 -5 45 -11 47 -14 3 -2 -10 -27 -27 -56 -21 -33 -34 -68 -37 -102 -5
-49 -6 -51 -33 -47 -16 3 -29 2 -29 -2 0 -11 35 -40 49 -40 6 0 29 -18 49 -39
51 -53 96 -62 155 -29 43 24 44 24 66 7 52 -42 142 -28 178 28 9 13 31 30 49
38 39 16 47 45 11 38 -20 -4 -23 1 -34 56 -7 39 -22 76 -42 103 l-31 42 22 9
c40 16 140 12 181 -8 36 -17 67 -58 67 -88 0 -20 -37 -64 -46 -55 -4 4 -1 14
6 23 10 12 10 18 0 30 -16 20 -37 19 -48 -1 -12 -21 -32 -10 -32 18 0 17 -2
18 -15 8 -8 -7 -15 -28 -15 -47 0 -40 37 -83 72 -83 38 0 88 37 95 70 6 33 13
36 31 18 9 -9 18 -8 39 1 27 13 27 14 7 21 -12 5 -25 14 -29 20 -4 6 -15 8
-26 5 -12 -4 -19 -2 -19 7 0 18 -57 71 -93 86 -15 7 -51 12 -80 12 -51 0 -52
1 -31 18 52 42 58 100 14 143 -33 33 -72 36 -78 7 -3 -13 1 -16 13 -12 21 8
35 -11 35 -49 0 -35 -20 -74 -57 -109 l-29 -28 -36 38 c-58 61 -75 115 -43
142 20 17 55 3 55 -22 0 -17 2 -18 15 -8 23 19 19 59 -9 71 -21 10 -22 14 -13
39 9 25 6 36 -25 87 -39 63 -51 100 -30 96 15 -4 16 13 1 23 -6 3 -18 -1 -27
-9 -13 -14 -14 -25 -4 -79 7 -41 8 -79 2 -108 -23 -113 -10 -167 57 -241 l36
-40 -25 -25 -25 -26 -35 34 -35 33 -32 -33 -32 -33 -28 23 -28 23 38 43 c21
24 46 64 55 88 15 40 16 54 4 127 -9 59 -9 97 -2 137 13 71 1 98 -35 83z"/>
<path d="M4353 645 c-70 -32 -95 -72 -90 -143 5 -72 44 -111 164 -168 110 -52
133 -72 133 -119 0 -91 -172 -110 -275 -30 -39 29 -39 29 -24 -48 11 -53 14
-57 48 -67 20 -5 72 -10 116 -10 63 0 91 5 130 24 96 44 144 132 112 207 -20
47 -40 63 -158 122 -117 60 -149 92 -131 132 27 58 135 68 207 19 l35 -23 0
58 c0 58 -1 59 -31 65 -17 3 -66 6 -108 6 -59 0 -87 -5 -128 -25z"/>
<path d="M4060 653 c0 -3 7 -14 15 -23 13 -14 17 -62 22 -259 6 -240 6 -242
-16 -272 -13 -17 -21 -32 -19 -34 7 -7 178 8 178 16 0 5 -4 9 -10 9 -21 0 -30
86 -30 296 0 178 3 224 15 240 8 10 15 22 15 27 0 4 -38 7 -85 7 -47 0 -85 -3
-85 -7z"/>
<path d="M3260 640 c0 -5 8 -13 18 -19 15 -9 17 -34 20 -261 3 -219 1 -255
-13 -277 -9 -14 -15 -26 -13 -27 2 -2 42 -1 90 2 l87 4 -19 27 c-16 23 -19 55
-24 251 -6 219 0 290 25 290 5 0 9 5 9 10 0 6 -37 10 -90 10 -50 0 -90 -4 -90
-10z"/>
<path d="M3480 645 c0 -3 9 -14 20 -25 18 -18 20 -35 23 -202 3 -267 0 -321
-18 -334 -8 -6 -15 -14 -15 -18 0 -3 41 -6 91 -6 l90 0 -20 26 c-19 24 -21 40
-21 152 l0 125 56 -79 c31 -43 81 -107 111 -141 61 -71 97 -86 181 -81 l53 3
-60 44 c-66 48 -223 232 -204 238 64 22 116 93 116 160 0 55 -24 90 -83 121
-40 20 -59 22 -182 22 -76 0 -138 -2 -138 -5z m282 -95 c28 -35 24 -91 -10
-123 -21 -20 -97 -57 -117 -57 -7 0 -16 190 -10 200 5 8 26 11 63 8 42 -4 60
-10 74 -28z"/>
<path d="M1680 621 c0 -6 5 -13 10 -16 19 -12 10 -45 -79 -275 -57 -150 -98
-241 -115 -259 -14 -15 -26 -30 -26 -34 0 -4 38 -7 85 -7 47 0 85 3 85 7 0 3
-8 15 -17 25 -16 18 -16 24 11 104 l29 84 107 0 107 0 33 -86 c31 -82 31 -86
14 -105 -17 -19 -15 -19 79 -19 54 0 97 3 97 6 0 3 -12 18 -28 33 -18 19 -65
117 -137 290 l-109 261 -73 0 c-40 0 -73 -4 -73 -9z"/>
<path d="M833 614 c-8 -4 -6 -11 8 -25 17 -17 19 -36 21 -206 4 -268 1 -313
-18 -335 -10 -10 -15 -20 -12 -23 3 -3 44 -2 92 1 85 7 86 7 69 27 -16 17 -18
47 -21 271 -3 218 -1 255 13 266 8 7 15 16 15 21 0 9 -146 11 -167 3z"/>
<path d="M1050 613 c0 -3 8 -15 18 -26 15 -17 17 -48 20 -264 3 -242 3 -246
-19 -269 l-22 -24 190 0 190 0 22 61 c13 33 21 62 19 64 -2 3 -26 -7 -53 -21
-44 -22 -61 -24 -135 -22 l-85 3 -3 227 c-2 217 -1 229 18 248 11 11 20 22 20
25 0 3 -40 5 -90 5 -49 0 -90 -3 -90 -7z"/>
<path d="M70 603 c0 -3 7 -14 15 -23 14 -16 13 -39 -10 -236 -29 -239 -38
-285 -60 -304 -8 -7 -15 -16 -15 -21 0 -10 89 -10 134 0 26 5 28 7 13 20 -12
9 -17 29 -17 60 0 52 37 361 44 368 5 5 12 -12 114 -246 60 -139 104 -211 129
-211 4 0 44 96 87 212 83 224 105 275 106 247 0 -9 9 -84 20 -165 24 -183 26
-252 5 -260 -8 -4 -15 -10 -15 -15 0 -10 173 -13 183 -3 3 4 -3 14 -14 23 -18
14 -26 51 -55 241 -37 245 -40 290 -22 308 9 9 -6 12 -70 12 -58 0 -84 -4 -86
-12 -14 -52 -142 -388 -147 -388 -9 0 -169 364 -169 384 0 13 -14 16 -85 16
-47 0 -85 -3 -85 -7z"/>
</g>
</svg>
